<svg xmlns="http://www.w3.org/2000/svg" width="60" height="60" viewBox="0 0 60 60">
  <defs>
    <linearGradient id="gradient" x1="0%" y1="0%" x2="100%" y2="100%">
      <stop offset="0%" stop-color="#6366f1" />
      <stop offset="100%" stop-color="#4338ca" />
    </linearGradient>
    <filter id="shadow" x="-20%" y="-20%" width="140%" height="140%">
      <feDropShadow dx="0" dy="2" stdDeviation="2" flood-color="#000" flood-opacity="0.3"/>
    </filter>
  </defs>
  <rect x="5" y="5" width="50" height="50" rx="10" fill="url(#gradient)" filter="url(#shadow)" />
  <g fill="#ffffff">
    <!-- Calculator Icon -->
    <rect x="15" y="15" width="30" height="8" rx="2" />
    <rect x="15" y="27" width="8" height="8" rx="2" />
    <rect x="26" y="27" width="8" height="8" rx="2" />
    <rect x="37" y="27" width="8" height="19" rx="2" />
    <rect x="15" y="38" width="19" height="8" rx="2" />
    <!-- Rupee Symbol -->
    <path d="M32.5,22 L27.5,22 C27.224,22 27,21.776 27,21.5 C27,21.224 27.224,21 27.5,21 L32.5,21 C32.776,21 33,21.224 33,21.5 C33,21.776 32.776,22 32.5,22 Z M31,19 L29,19 C28.448,19 28,18.552 28,18 C28,17.448 28.448,17 29,17 L31,17 C31.552,17 32,17.448 32,18 C32,18.552 31.552,19 31,19 Z" />
  </g>
  <!-- Glow Effect -->
  <circle cx="30" cy="30" r="25" fill="none" stroke="rgba(99, 102, 241, 0.2)" stroke-width="5" />
</svg>
